<svg width="108" height="109" viewBox="0 0 108 109" fill="none" xmlns="http://www.w3.org/2000/svg">
<g id="tree-logo">
<g id="Vector" filter="url(#filter0_d)">
<path d="M101.793 56.3338L59.3339 98.7925C56.3907 101.736 51.6093 101.736 48.6661 98.7925L6.2074 56.3338C3.26419 53.3906 3.26419 48.6093 6.2074 45.666L48.6661 3.2074C51.6093 0.264199 56.3907 0.264199 59.3339 3.2074L101.793 45.666C104.736 48.6093 104.736 53.3906 101.793 56.3338Z" fill="#EE4466"/>
</g>
<path id="Rectangle 2" d="M51.1252 1.42784L53.8414 0.743297L56.4319 1.33958V100.63L53.7408 101.228L50.9994 100.487L51.1252 1.42784Z" fill="white"/>
<path id="Rectangle 3" d="M29.4066 22.2153L33.5239 18.3417L55.7527 42.7843L51.6355 46.6578L29.4066 22.2153Z" fill="white"/>
<path id="Rectangle 4" d="M56.5097 78.2402L52.7256 74.0297L92.9292 36.6498L96.8745 40.6717L56.5097 78.2402Z" fill="white"/>
</g>
<defs>
<filter id="filter0_d" x="-3.38443e-06" y="1" width="108" height="108" filterUnits="userSpaceOnUse" color-interpolation-filters="sRGB">
<feFlood flood-opacity="0" result="BackgroundImageFix"/>
<feColorMatrix in="SourceAlpha" type="matrix" values="0 0 0 0 0 0 0 0 0 0 0 0 0 0 0 0 0 0 127 0"/>
<feOffset dy="4"/>
<feGaussianBlur stdDeviation="2"/>
<feColorMatrix type="matrix" values="0 0 0 0 0 0 0 0 0 0 0 0 0 0 0 0 0 0 0.25 0"/>
<feBlend mode="normal" in2="BackgroundImageFix" result="effect1_dropShadow"/>
<feBlend mode="normal" in="SourceGraphic" in2="effect1_dropShadow" result="shape"/>
</filter>
</defs>
</svg>